# xmcd
#
# Track frame offsets: 
#        150
#        13812
#        25740
#        37262
#        51432
#        65750
#        78660
#        93645
#
# Disc length: 1439 seconds
#
# Revision: 2
# Processed by: cddbd v1.4PL0 Copyright (c) Steve Scherf et al.
# Submitted via: ExactAudioCopy v0.90b4
#
DISCID=70059d08
DTITLE=Vern Gosdin - Rough Around The Edges
DYEAR=1900
DGENRE=Country
TTITLE0=Lovin' You Is Music To My Mind
TTITLE1=I Wish I Had Something
TTITLE2=When Love Was All We Had To Share
TTITLE3=It's Beginning To Look Like The End
TTITLE4=Rough Around The Edges
TTITLE5=We're Makin' Up For Lost Time
TTITLE6=Rustin' Down
TTITLE7=Singer Of Sad Songs
EXTD=
EXTT0=
EXTT1=
EXTT2=
EXTT3=
EXTT4=
EXTT5=
EXTT6=
EXTT7=
PLAYORDER=
